<?xml version="1.0" encoding="UTF-8" standalone="no"?>
<!DOCTYPE svg PUBLIC "-//W3C//DTD SVG 1.1//EN"
 "http://www.w3.org/Graphics/SVG/1.1/DTD/svg11.dtd">
<!-- Generated by graphviz version 2.43.0 (0)
 -->
<!-- Title: Graphical Class Hierarchy Pages: 1 -->
<svg width="877pt" height="1055pt"
 viewBox="0.00 0.00 877.00 1054.50" xmlns="http://www.w3.org/2000/svg" xmlns:xlink="http://www.w3.org/1999/xlink">
<g id="graph0" class="graph" transform="scale(1 1) rotate(0) translate(4 1050.5)">
<title>Graphical Class Hierarchy</title>
<!-- Node311 -->
<g id="node1" class="node">
<title>Node311</title>
<g id="a_node1"><a xlink:title=" ">
<polygon fill="none" stroke="#bfbfbf" points="36.5,-278.5 36.5,-297.5 160.5,-297.5 160.5,-278.5 36.5,-278.5"/>
<text text-anchor="middle" x="98.5" y="-285.5" font-family="Helvetica,sans-Serif" font-size="10.00">RTShaderSystemAlloc</text>
</a>
</g>
</g>
<!-- Node312 -->
<g id="node2" class="node">
<title>Node312</title>
<g id="a_node2"><a xlink:href="class_ogre_1_1_r_t_shader_1_1_function.html" target="_top" xlink:title="A class that represents a shader based program function.">
<polygon fill="none" stroke="black" points="256.5,-437.5 256.5,-456.5 396.5,-456.5 396.5,-437.5 256.5,-437.5"/>
<text text-anchor="middle" x="326.5" y="-444.5" font-family="Helvetica,sans-Serif" font-size="10.00">Ogre::RTShader::Function</text>
</a>
</g>
</g>
<!-- Node311&#45;&gt;Node312 -->
<g id="edge1" class="edge">
<title>Node311&#45;&gt;Node312</title>
<path fill="none" stroke="midnightblue" d="M111.26,-305.92C132.03,-336.01 178.2,-396.4 233,-427 240.75,-431.33 249.34,-434.72 258.08,-437.37"/>
<polygon fill="midnightblue" stroke="midnightblue" points="114.15,-303.94 105.65,-297.62 108.35,-307.86 114.15,-303.94"/>
</g>
<!-- Node313 -->
<g id="node3" class="node">
<title>Node313</title>
<g id="a_node3"><a xlink:href="class_ogre_1_1_r_t_shader_1_1_function_atom.html" target="_top" xlink:title="A class that represents an atomic code section of shader based program function.">
<polygon fill="none" stroke="black" points="243.5,-316.5 243.5,-335.5 409.5,-335.5 409.5,-316.5 243.5,-316.5"/>
<text text-anchor="middle" x="326.5" y="-323.5" font-family="Helvetica,sans-Serif" font-size="10.00">Ogre::RTShader::FunctionAtom</text>
</a>
</g>
</g>
<!-- Node311&#45;&gt;Node313 -->
<g id="edge2" class="edge">
<title>Node311&#45;&gt;Node313</title>
<path fill="none" stroke="midnightblue" d="M166.14,-299.2C198.74,-304.69 237.57,-311.22 268.74,-316.46"/>
<polygon fill="midnightblue" stroke="midnightblue" points="166.68,-295.75 156.24,-297.54 165.52,-302.65 166.68,-295.75"/>
</g>
<!-- Node318 -->
<g id="node8" class="node">
<title>Node318</title>
<g id="a_node8"><a xlink:href="class_ogre_1_1_r_t_shader_1_1_operand.html" target="_top" xlink:title="A class that represents a function operand (its the combination of a parameter the in/out semantic an...">
<polygon fill="none" stroke="black" points="256.5,-278.5 256.5,-297.5 396.5,-297.5 396.5,-278.5 256.5,-278.5"/>
<text text-anchor="middle" x="326.5" y="-285.5" font-family="Helvetica,sans-Serif" font-size="10.00">Ogre::RTShader::Operand</text>
</a>
</g>
</g>
<!-- Node311&#45;&gt;Node318 -->
<g id="edge7" class="edge">
<title>Node311&#45;&gt;Node318</title>
<path fill="none" stroke="midnightblue" d="M170.92,-288C198.2,-288 229.24,-288 256.31,-288"/>
<polygon fill="midnightblue" stroke="midnightblue" points="170.66,-284.5 160.66,-288 170.66,-291.5 170.66,-284.5"/>
</g>
<!-- Node323 -->
<g id="node13" class="node">
<title>Node323</title>
<g id="a_node13"><a xlink:href="class_ogre_1_1_r_t_shader_1_1_parameter.html" target="_top" xlink:title="A class that represents a shader based program parameter.">
<polygon fill="none" stroke="black" points="252,-88.5 252,-107.5 401,-107.5 401,-88.5 252,-88.5"/>
<text text-anchor="middle" x="326.5" y="-95.5" font-family="Helvetica,sans-Serif" font-size="10.00">Ogre::RTShader::Parameter</text>
</a>
</g>
</g>
<!-- Node311&#45;&gt;Node323 -->
<g id="edge12" class="edge">
<title>Node311&#45;&gt;Node323</title>
<path fill="none" stroke="midnightblue" d="M108.57,-268.96C126.74,-233.01 171.25,-155.31 233,-117 239.27,-113.11 246.19,-110 253.35,-107.52"/>
<polygon fill="midnightblue" stroke="midnightblue" points="105.24,-267.79 103.96,-278.31 111.52,-270.89 105.24,-267.79"/>
</g>
<!-- Node326 -->
<g id="node16" class="node">
<title>Node326</title>
<g id="a_node16"><a xlink:href="class_ogre_1_1_r_t_shader_1_1_program.html" target="_top" xlink:title="A class that represents a shader based program.">
<polygon fill="none" stroke="black" points="256.5,-240.5 256.5,-259.5 396.5,-259.5 396.5,-240.5 256.5,-240.5"/>
<text text-anchor="middle" x="326.5" y="-247.5" font-family="Helvetica,sans-Serif" font-size="10.00">Ogre::RTShader::Program</text>
</a>
</g>
</g>
<!-- Node311&#45;&gt;Node326 -->
<g id="edge15" class="edge">
<title>Node311&#45;&gt;Node326</title>
<path fill="none" stroke="midnightblue" d="M166.14,-276.8C198.74,-271.31 237.57,-264.78 268.74,-259.54"/>
<polygon fill="midnightblue" stroke="midnightblue" points="165.52,-273.35 156.24,-278.46 166.68,-280.25 165.52,-273.35"/>
</g>
<!-- Node135 -->
<g id="node17" class="node">
<title>Node135</title>
<g id="a_node17"><a xlink:href="class_ogre_1_1_r_t_shader_1_1_program_manager.html" target="_top" xlink:title="A singleton manager class that manages shader based programs.">
<polygon fill="none" stroke="black" points="235.5,-940.5 235.5,-959.5 417.5,-959.5 417.5,-940.5 235.5,-940.5"/>
<text text-anchor="middle" x="326.5" y="-947.5" font-family="Helvetica,sans-Serif" font-size="10.00">Ogre::RTShader::ProgramManager</text>
</a>
</g>
</g>
<!-- Node311&#45;&gt;Node135 -->
<g id="edge16" class="edge">
<title>Node311&#45;&gt;Node135</title>
<path fill="none" stroke="midnightblue" d="M100.77,-307.97C107.42,-406.52 141.59,-839.78 233,-931 236.71,-934.71 240.94,-937.78 245.5,-940.33"/>
<polygon fill="midnightblue" stroke="midnightblue" points="104.25,-307.63 100.1,-297.89 97.27,-308.09 104.25,-307.63"/>
</g>
<!-- Node327 -->
<g id="node18" class="node">
<title>Node327</title>
<g id="a_node18"><a xlink:href="class_ogre_1_1_r_t_shader_1_1_program_processor.html" target="_top" xlink:title="A class that provides extra processing services on CPU based programs.">
<polygon fill="none" stroke="black" points="233,-202.5 233,-221.5 420,-221.5 420,-202.5 233,-202.5"/>
<text text-anchor="middle" x="326.5" y="-209.5" font-family="Helvetica,sans-Serif" font-size="10.00">Ogre::RTShader::ProgramProcessor</text>
</a>
</g>
</g>
<!-- Node311&#45;&gt;Node327 -->
<g id="edge17" class="edge">
<title>Node311&#45;&gt;Node327</title>
<path fill="none" stroke="midnightblue" d="M127.59,-274.04C154.19,-261.3 195.51,-242.72 233,-231 244.74,-227.33 257.53,-224.18 269.77,-221.56"/>
<polygon fill="midnightblue" stroke="midnightblue" points="125.97,-270.94 118.5,-278.44 129.02,-277.24 125.97,-270.94"/>
</g>
<!-- Node328 -->
<g id="node19" class="node">
<title>Node328</title>
<g id="a_node19"><a xlink:href="class_ogre_1_1_r_t_shader_1_1_program_set.html" target="_top" xlink:title="Container class for shader based programs.">
<polygon fill="none" stroke="black" points="249,-164.5 249,-183.5 404,-183.5 404,-164.5 249,-164.5"/>
<text text-anchor="middle" x="326.5" y="-171.5" font-family="Helvetica,sans-Serif" font-size="10.00">Ogre::RTShader::ProgramSet</text>
</a>
</g>
</g>
<!-- Node311&#45;&gt;Node328 -->
<g id="edge18" class="edge">
<title>Node311&#45;&gt;Node328</title>
<path fill="none" stroke="midnightblue" d="M117.29,-271.57C141.56,-250.11 187.27,-212.9 233,-193 241.87,-189.14 251.56,-186.05 261.23,-183.58"/>
<polygon fill="midnightblue" stroke="midnightblue" points="114.73,-269.17 109.64,-278.46 119.41,-274.37 114.73,-269.17"/>
</g>
<!-- Node329 -->
<g id="node20" class="node">
<title>Node329</title>
<g id="a_node20"><a xlink:href="class_ogre_1_1_r_t_shader_1_1_program_writer.html" target="_top" xlink:title="Base class interface for shader program writers.">
<polygon fill="none" stroke="black" points="241.5,-126.5 241.5,-145.5 411.5,-145.5 411.5,-126.5 241.5,-126.5"/>
<text text-anchor="middle" x="326.5" y="-133.5" font-family="Helvetica,sans-Serif" font-size="10.00">Ogre::RTShader::ProgramWriter</text>
</a>
</g>
</g>
<!-- Node311&#45;&gt;Node329 -->
<g id="edge19" class="edge">
<title>Node311&#45;&gt;Node329</title>
<path fill="none" stroke="midnightblue" d="M112,-270.01C133.27,-240.89 179.43,-183.78 233,-155 240.22,-151.12 248.15,-148.03 256.23,-145.57"/>
<polygon fill="midnightblue" stroke="midnightblue" points="108.96,-268.24 105.99,-278.41 114.66,-272.31 108.96,-268.24"/>
</g>
<!-- Node330 -->
<g id="node21" class="node">
<title>Node330</title>
<g id="a_node21"><a xlink:href="class_ogre_1_1_r_t_shader_1_1_program_writer_factory.html" target="_top" xlink:title=" ">
<polygon fill="none" stroke="black" points="241.5,-891 241.5,-921 411.5,-921 411.5,-891 241.5,-891"/>
<text text-anchor="start" x="249.5" y="-909" font-family="Helvetica,sans-Serif" font-size="10.00">Ogre::RTShader::ProgramWriter</text>
<text text-anchor="middle" x="326.5" y="-898" font-family="Helvetica,sans-Serif" font-size="10.00">Factory</text>
</a>
</g>
</g>
<!-- Node311&#45;&gt;Node330 -->
<g id="edge20" class="edge">
<title>Node311&#45;&gt;Node330</title>
<path fill="none" stroke="midnightblue" d="M101.22,-307.48C109.77,-400.1 150.64,-795.06 233,-881 236.68,-884.84 240.89,-888.12 245.43,-890.9"/>
<polygon fill="midnightblue" stroke="midnightblue" points="104.7,-307.15 100.32,-297.51 97.73,-307.78 104.7,-307.15"/>
</g>
<!-- Node133 -->
<g id="node22" class="node">
<title>Node133</title>
<g id="a_node22"><a xlink:href="class_ogre_1_1_r_t_shader_1_1_program_writer_manager.html" target="_top" xlink:title=" ">
<polygon fill="none" stroke="black" points="241.5,-39 241.5,-69 411.5,-69 411.5,-39 241.5,-39"/>
<text text-anchor="start" x="249.5" y="-57" font-family="Helvetica,sans-Serif" font-size="10.00">Ogre::RTShader::ProgramWriter</text>
<text text-anchor="middle" x="326.5" y="-46" font-family="Helvetica,sans-Serif" font-size="10.00">Manager</text>
</a>
</g>
</g>
<!-- Node311&#45;&gt;Node133 -->
<g id="edge21" class="edge">
<title>Node311&#45;&gt;Node133</title>
<path fill="none" stroke="midnightblue" d="M106.2,-268.89C121.7,-227.57 164.03,-129.62 233,-79 238.23,-75.16 244.01,-71.91 250.06,-69.16"/>
<polygon fill="midnightblue" stroke="midnightblue" points="102.9,-267.72 102.77,-278.32 109.48,-270.12 102.9,-267.72"/>
</g>
<!-- Node331 -->
<g id="node23" class="node">
<title>Node331</title>
<g id="a_node23"><a xlink:href="class_ogre_1_1_r_t_shader_1_1_render_state.html" target="_top" xlink:title="This is a container class for sub render state class.">
<polygon fill="none" stroke="black" points="247.5,-852.5 247.5,-871.5 405.5,-871.5 405.5,-852.5 247.5,-852.5"/>
<text text-anchor="middle" x="326.5" y="-859.5" font-family="Helvetica,sans-Serif" font-size="10.00">Ogre::RTShader::RenderState</text>
</a>
</g>
</g>
<!-- Node311&#45;&gt;Node331 -->
<g id="edge22" class="edge">
<title>Node311&#45;&gt;Node331</title>
<path fill="none" stroke="midnightblue" d="M101.47,-308.02C110.78,-398.22 153.15,-765.78 233,-843 237.24,-847.1 242.12,-850.43 247.37,-853.11"/>
<polygon fill="midnightblue" stroke="midnightblue" points="104.93,-307.4 100.44,-297.81 97.97,-308.11 104.93,-307.4"/>
</g>
<!-- Node1 -->
<g id="node25" class="node">
<title>Node1</title>
<g id="a_node25"><a xlink:href="class_ogre_1_1_r_t_shader_1_1_shader_generator.html" target="_top" xlink:title="Shader generator system main interface.">
<polygon fill="none" stroke="black" points="236,-0.5 236,-19.5 417,-19.5 417,-0.5 236,-0.5"/>
<text text-anchor="middle" x="326.5" y="-7.5" font-family="Helvetica,sans-Serif" font-size="10.00">Ogre::RTShader::ShaderGenerator</text>
</a>
</g>
</g>
<!-- Node311&#45;&gt;Node1 -->
<g id="edge24" class="edge">
<title>Node311&#45;&gt;Node1</title>
<path fill="none" stroke="midnightblue" d="M108.15,-268.96C134.24,-211.9 211.65,-45.18 233,-29 237.96,-25.24 243.49,-22.17 249.31,-19.68"/>
<polygon fill="midnightblue" stroke="midnightblue" points="104.87,-267.73 103.9,-278.28 111.23,-270.64 104.87,-267.73"/>
</g>
<!-- Node333 -->
<g id="node26" class="node">
<title>Node333</title>
<g id="a_node26"><a xlink:href="class_ogre_1_1_r_t_shader_1_1_sub_render_state.html" target="_top" xlink:title="This class is the base interface of sub part from a shader based rendering pipeline.">
<polygon fill="none" stroke="black" points="251,-803 251,-833 402,-833 402,-803 251,-803"/>
<text text-anchor="start" x="259" y="-821" font-family="Helvetica,sans-Serif" font-size="10.00">Ogre::RTShader::SubRender</text>
<text text-anchor="middle" x="326.5" y="-810" font-family="Helvetica,sans-Serif" font-size="10.00">State</text>
</a>
</g>
</g>
<!-- Node311&#45;&gt;Node333 -->
<g id="edge25" class="edge">
<title>Node311&#45;&gt;Node333</title>
<path fill="none" stroke="midnightblue" d="M107.6,-306.99C143.38,-390.91 286.96,-727.62 319.1,-802.98"/>
<polygon fill="midnightblue" stroke="midnightblue" points="110.76,-305.48 103.62,-297.65 104.32,-308.22 110.76,-305.48"/>
</g>
<!-- Node341 -->
<g id="node34" class="node">
<title>Node341</title>
<g id="a_node34"><a xlink:href="class_ogre_1_1_r_t_shader_1_1_sub_render_state_factory.html" target="_top" xlink:title="Abstract factory interface for creating SubRenderState implementation instances.">
<polygon fill="none" stroke="black" points="251,-543 251,-573 402,-573 402,-543 251,-543"/>
<text text-anchor="start" x="259" y="-561" font-family="Helvetica,sans-Serif" font-size="10.00">Ogre::RTShader::SubRender</text>
<text text-anchor="middle" x="326.5" y="-550" font-family="Helvetica,sans-Serif" font-size="10.00">StateFactory</text>
</a>
</g>
</g>
<!-- Node311&#45;&gt;Node341 -->
<g id="edge33" class="edge">
<title>Node311&#45;&gt;Node341</title>
<path fill="none" stroke="midnightblue" d="M111.86,-306.23C134.51,-339.23 184.78,-410.55 233,-466 257.82,-494.54 289.62,-525 308.73,-542.72"/>
<polygon fill="midnightblue" stroke="midnightblue" points="114.52,-303.92 105.99,-297.64 108.74,-307.87 114.52,-303.92"/>
</g>
<!-- Node314 -->
<g id="node4" class="node">
<title>Node314</title>
<g id="a_node4"><a xlink:href="class_ogre_1_1_r_t_shader_1_1_assignment_atom.html" target="_top" xlink:title="shorthand for &quot;lhs = rhs;&quot; insted of using FFP_Assign(rhs, lhs)">
<polygon fill="none" stroke="black" points="463.5,-256.5 463.5,-275.5 645.5,-275.5 645.5,-256.5 463.5,-256.5"/>
<text text-anchor="middle" x="554.5" y="-263.5" font-family="Helvetica,sans-Serif" font-size="10.00">Ogre::RTShader::AssignmentAtom</text>
</a>
</g>
</g>
<!-- Node313&#45;&gt;Node314 -->
<g id="edge3" class="edge">
<title>Node313&#45;&gt;Node314</title>
<path fill="none" stroke="midnightblue" d="M398.94,-313.93C406.15,-311.94 413.29,-309.65 420,-307 437.44,-300.12 438.52,-291.79 456,-285 465.97,-281.13 476.82,-278.02 487.56,-275.53"/>
<polygon fill="midnightblue" stroke="midnightblue" points="397.89,-310.59 389.08,-316.46 399.63,-317.37 397.89,-310.59"/>
</g>
<!-- Node315 -->
<g id="node5" class="node">
<title>Node315</title>
<g id="a_node5"><a xlink:href="class_ogre_1_1_r_t_shader_1_1_binary_op_atom.html" target="_top" xlink:title="shorthand for &quot;dst = a OP b;&quot;">
<polygon fill="none" stroke="black" points="469.5,-382.5 469.5,-401.5 639.5,-401.5 639.5,-382.5 469.5,-382.5"/>
<text text-anchor="middle" x="554.5" y="-389.5" font-family="Helvetica,sans-Serif" font-size="10.00">Ogre::RTShader::BinaryOpAtom</text>
</a>
</g>
</g>
<!-- Node313&#45;&gt;Node315 -->
<g id="edge4" class="edge">
<title>Node313&#45;&gt;Node315</title>
<path fill="none" stroke="midnightblue" d="M360.95,-339.45C386.64,-349.41 423.17,-362.81 456,-372 470.14,-375.96 485.64,-379.5 500.04,-382.45"/>
<polygon fill="midnightblue" stroke="midnightblue" points="361.92,-336.07 351.33,-335.68 359.36,-342.58 361.92,-336.07"/>
</g>
<!-- Node316 -->
<g id="node6" class="node">
<title>Node316</title>
<g id="a_node6"><a xlink:href="class_ogre_1_1_r_t_shader_1_1_function_invocation.html" target="_top" xlink:title="A class that represents function invocation code from shader based program function.">
<polygon fill="none" stroke="black" points="484.5,-333 484.5,-363 624.5,-363 624.5,-333 484.5,-333"/>
<text text-anchor="start" x="492.5" y="-351" font-family="Helvetica,sans-Serif" font-size="10.00">Ogre::RTShader::Function</text>
<text text-anchor="middle" x="554.5" y="-340" font-family="Helvetica,sans-Serif" font-size="10.00">Invocation</text>
</a>
</g>
</g>
<!-- Node313&#45;&gt;Node316 -->
<g id="edge5" class="edge">
<title>Node313&#45;&gt;Node316</title>
<path fill="none" stroke="midnightblue" d="M419.88,-334.99C441.42,-337.09 464.01,-339.29 484.35,-341.27"/>
<polygon fill="midnightblue" stroke="midnightblue" points="420.02,-331.49 409.73,-334 419.34,-338.46 420.02,-331.49"/>
</g>
<!-- Node317 -->
<g id="node7" class="node">
<title>Node317</title>
<g id="a_node7"><a xlink:href="class_ogre_1_1_r_t_shader_1_1_sample_texture_atom.html" target="_top" xlink:title="shorthand for &quot;dst = texture(sampler, uv);&quot; instead of using FFP_SampleTexture">
<polygon fill="none" stroke="black" points="456,-294.5 456,-313.5 653,-313.5 653,-294.5 456,-294.5"/>
<text text-anchor="middle" x="554.5" y="-301.5" font-family="Helvetica,sans-Serif" font-size="10.00">Ogre::RTShader::SampleTextureAtom</text>
</a>
</g>
</g>
<!-- Node313&#45;&gt;Node317 -->
<g id="edge6" class="edge">
<title>Node313&#45;&gt;Node317</title>
<path fill="none" stroke="midnightblue" d="M419.69,-317.03C431.64,-315.86 443.92,-314.67 455.97,-313.49"/>
<polygon fill="midnightblue" stroke="midnightblue" points="419.34,-313.54 409.73,-318 420.02,-320.51 419.34,-313.54"/>
</g>
<!-- Node319 -->
<g id="node9" class="node">
<title>Node319</title>
<g id="a_node9"><a xlink:href="struct_ogre_1_1_r_t_shader_1_1_at.html" target="_top" xlink:title="shorthand for operator[] on preceding operand. e.g. myArray[p]">
<polygon fill="none" stroke="black" points="500,-104.5 500,-123.5 609,-123.5 609,-104.5 500,-104.5"/>
<text text-anchor="middle" x="554.5" y="-111.5" font-family="Helvetica,sans-Serif" font-size="10.00">Ogre::RTShader::At</text>
</a>
</g>
</g>
<!-- Node318&#45;&gt;Node319 -->
<g id="edge8" class="edge">
<title>Node318&#45;&gt;Node319</title>
<path fill="none" stroke="midnightblue" d="M406.24,-278.64C411.24,-276.05 415.9,-272.87 420,-269 465.44,-226.05 410.35,-175.72 456,-133 467.77,-121.98 483.95,-116.48 499.75,-113.93"/>
<polygon fill="midnightblue" stroke="midnightblue" points="404.67,-275.5 396.91,-282.71 407.47,-281.92 404.67,-275.5"/>
</g>
<!-- Node320 -->
<g id="node10" class="node">
<title>Node320</title>
<g id="a_node10"><a xlink:href="struct_ogre_1_1_r_t_shader_1_1_in.html" target="_top" xlink:title=" ">
<polygon fill="none" stroke="black" points="501,-218.5 501,-237.5 608,-237.5 608,-218.5 501,-218.5"/>
<text text-anchor="middle" x="554.5" y="-225.5" font-family="Helvetica,sans-Serif" font-size="10.00">Ogre::RTShader::In</text>
</a>
</g>
</g>
<!-- Node318&#45;&gt;Node320 -->
<g id="edge9" class="edge">
<title>Node318&#45;&gt;Node320</title>
<path fill="none" stroke="midnightblue" d="M398.94,-275.93C406.15,-273.94 413.29,-271.65 420,-269 437.44,-262.12 438.52,-253.79 456,-247 470.15,-241.5 486.09,-237.54 500.92,-234.71"/>
<polygon fill="midnightblue" stroke="midnightblue" points="397.89,-272.59 389.08,-278.46 399.63,-279.37 397.89,-272.59"/>
</g>
<!-- Node321 -->
<g id="node11" class="node">
<title>Node321</title>
<g id="a_node11"><a xlink:href="struct_ogre_1_1_r_t_shader_1_1_in_out.html" target="_top" xlink:title=" ">
<polygon fill="none" stroke="black" points="492,-180.5 492,-199.5 617,-199.5 617,-180.5 492,-180.5"/>
<text text-anchor="middle" x="554.5" y="-187.5" font-family="Helvetica,sans-Serif" font-size="10.00">Ogre::RTShader::InOut</text>
</a>
</g>
</g>
<!-- Node318&#45;&gt;Node321 -->
<g id="edge10" class="edge">
<title>Node318&#45;&gt;Node321</title>
<path fill="none" stroke="midnightblue" d="M406.34,-276.72C411.15,-274.55 415.76,-272 420,-269 445.37,-251.02 430.54,-226.85 456,-209 466.52,-201.62 479.17,-196.93 491.83,-193.99"/>
<polygon fill="midnightblue" stroke="midnightblue" points="404.89,-273.53 396.85,-280.42 407.44,-280.05 404.89,-273.53"/>
</g>
<!-- Node322 -->
<g id="node12" class="node">
<title>Node322</title>
<g id="a_node12"><a xlink:href="struct_ogre_1_1_r_t_shader_1_1_out.html" target="_top" xlink:title=" ">
<polygon fill="none" stroke="black" points="496.5,-142.5 496.5,-161.5 612.5,-161.5 612.5,-142.5 496.5,-142.5"/>
<text text-anchor="middle" x="554.5" y="-149.5" font-family="Helvetica,sans-Serif" font-size="10.00">Ogre::RTShader::Out</text>
</a>
</g>
</g>
<!-- Node318&#45;&gt;Node322 -->
<g id="edge11" class="edge">
<title>Node318&#45;&gt;Node322</title>
<path fill="none" stroke="midnightblue" d="M406.12,-278.07C411.11,-275.6 415.81,-272.61 420,-269 455.17,-238.73 420.68,-201.09 456,-171 467.22,-161.44 481.83,-156.14 496.3,-153.33"/>
<polygon fill="midnightblue" stroke="midnightblue" points="404.71,-274.86 396.86,-281.97 407.43,-281.31 404.71,-274.86"/>
</g>
<!-- Node324 -->
<g id="node14" class="node">
<title>Node324</title>
<g id="a_node14"><a xlink:href="class_ogre_1_1_r_t_shader_1_1_const_parameter.html" target="_top" xlink:title="Helper template which is the base for our ConstParameters.">
<polygon fill="none" stroke="black" points="466,-17 466,-47 643,-47 643,-17 466,-17"/>
<text text-anchor="start" x="474" y="-35" font-family="Helvetica,sans-Serif" font-size="10.00">Ogre::RTShader::ConstParameter</text>
<text text-anchor="middle" x="554.5" y="-24" font-family="Helvetica,sans-Serif" font-size="10.00">&lt; valueType &gt;</text>
</a>
</g>
</g>
<!-- Node323&#45;&gt;Node324 -->
<g id="edge13" class="edge">
<title>Node323&#45;&gt;Node324</title>
<path fill="none" stroke="midnightblue" d="M395.05,-86C403.57,-83.73 412.07,-81.08 420,-78 437.27,-71.29 438.86,-64.03 456,-57 465.13,-53.25 474.98,-49.94 484.79,-47.05"/>
<polygon fill="midnightblue" stroke="midnightblue" points="393.93,-82.67 385.08,-88.49 395.63,-89.47 393.93,-82.67"/>
</g>
<!-- Node325 -->
<g id="node15" class="node">
<title>Node325</title>
<g id="a_node15"><a xlink:href="class_ogre_1_1_r_t_shader_1_1_uniform_parameter.html" target="_top" xlink:title="Uniform parameter class.">
<polygon fill="none" stroke="black" points="460,-66.5 460,-85.5 649,-85.5 649,-66.5 460,-66.5"/>
<text text-anchor="middle" x="554.5" y="-73.5" font-family="Helvetica,sans-Serif" font-size="10.00">Ogre::RTShader::UniformParameter</text>
</a>
</g>
</g>
<!-- Node323&#45;&gt;Node325 -->
<g id="edge14" class="edge">
<title>Node323&#45;&gt;Node325</title>
<path fill="none" stroke="midnightblue" d="M411.4,-89.83C427.14,-88.3 443.69,-86.69 459.71,-85.13"/>
<polygon fill="midnightblue" stroke="midnightblue" points="410.8,-86.37 401.19,-90.83 411.48,-93.34 410.8,-86.37"/>
</g>
<!-- Node332 -->
<g id="node24" class="node">
<title>Node332</title>
<g id="a_node24"><a xlink:href="class_ogre_1_1_r_t_shader_1_1_target_render_state.html" target="_top" xlink:title="This is the target render state.">
<polygon fill="none" stroke="black" points="473,-1016 473,-1046 636,-1046 636,-1016 473,-1016"/>
<text text-anchor="start" x="481" y="-1034" font-family="Helvetica,sans-Serif" font-size="10.00">Ogre::RTShader::TargetRender</text>
<text text-anchor="middle" x="554.5" y="-1023" font-family="Helvetica,sans-Serif" font-size="10.00">State</text>
</a>
</g>
</g>
<!-- Node331&#45;&gt;Node332 -->
<g id="edge23" class="edge">
<title>Node331&#45;&gt;Node332</title>
<path fill="none" stroke="midnightblue" d="M413.64,-876.87C415.87,-878.43 418,-880.14 420,-882 461.97,-921.14 414.79,-966.07 456,-1006 460.89,-1010.74 466.56,-1014.62 472.65,-1017.79"/>
<polygon fill="midnightblue" stroke="midnightblue" points="414.95,-873.58 404.56,-871.54 411.41,-879.62 414.95,-873.58"/>
</g>
<!-- Node334 -->
<g id="node27" class="node">
<title>Node334</title>
<g id="a_node27"><a xlink:href="class_ogre_1_1_r_t_shader_1_1_f_f_p_texturing.html" target="_top" xlink:title="Texturing sub render state implementation of the Fixed Function Pipeline.">
<polygon fill="none" stroke="black" points="474,-977.5 474,-996.5 635,-996.5 635,-977.5 474,-977.5"/>
<text text-anchor="middle" x="554.5" y="-984.5" font-family="Helvetica,sans-Serif" font-size="10.00">Ogre::RTShader::FFPTexturing</text>
</a>
</g>
</g>
<!-- Node333&#45;&gt;Node334 -->
<g id="edge26" class="edge">
<title>Node333&#45;&gt;Node334</title>
<path fill="none" stroke="midnightblue" d="M410.67,-835.47C414.01,-837.69 417.15,-840.19 420,-843 461.22,-883.54 413.36,-928.96 456,-968 461.21,-972.78 467.26,-976.51 473.74,-979.41"/>
<polygon fill="midnightblue" stroke="midnightblue" points="412.42,-832.43 402.01,-830.48 408.93,-838.5 412.42,-832.43"/>
</g>
<!-- Node336 -->
<g id="node29" class="node">
<title>Node336</title>
<g id="a_node29"><a xlink:href="class_ogre_1_1_r_t_shader_1_1_f_f_p_transform.html" target="_top" xlink:title="Transform sub render state implementation of the Fixed Function Pipeline.">
<polygon fill="none" stroke="black" points="471.5,-939.5 471.5,-958.5 637.5,-958.5 637.5,-939.5 471.5,-939.5"/>
<text text-anchor="middle" x="554.5" y="-946.5" font-family="Helvetica,sans-Serif" font-size="10.00">Ogre::RTShader::FFPTransform</text>
</a>
</g>
</g>
<!-- Node333&#45;&gt;Node336 -->
<g id="edge28" class="edge">
<title>Node333&#45;&gt;Node336</title>
<path fill="none" stroke="midnightblue" d="M411.32,-836.51C414.38,-838.47 417.29,-840.62 420,-843 451.43,-870.63 423.61,-903.51 456,-930 460.67,-933.82 465.89,-936.95 471.42,-939.51"/>
<polygon fill="midnightblue" stroke="midnightblue" points="412.79,-833.32 402.35,-831.53 409.39,-839.44 412.79,-833.32"/>
</g>
<!-- Node337 -->
<g id="node30" class="node">
<title>Node337</title>
<g id="a_node30"><a xlink:href="class_ogre_1_1_r_t_shader_1_1_g_buffer.html" target="_top" xlink:title="Transform sub render state implementation of writing to GBuffers.">
<polygon fill="none" stroke="black" points="486.5,-901.5 486.5,-920.5 622.5,-920.5 622.5,-901.5 486.5,-901.5"/>
<text text-anchor="middle" x="554.5" y="-908.5" font-family="Helvetica,sans-Serif" font-size="10.00">Ogre::RTShader::GBuffer</text>
</a>
</g>
</g>
<!-- Node333&#45;&gt;Node337 -->
<g id="edge29" class="edge">
<title>Node333&#45;&gt;Node337</title>
<path fill="none" stroke="midnightblue" d="M410.89,-837.5C414.05,-839.18 417.1,-841.01 420,-843 442.29,-858.27 433.17,-877.54 456,-892 465.18,-897.82 475.74,-901.92 486.46,-904.8"/>
<polygon fill="midnightblue" stroke="midnightblue" points="412.27,-834.28 401.74,-833.13 409.25,-840.6 412.27,-834.28"/>
</g>
<!-- Node338 -->
<g id="node31" class="node">
<title>Node338</title>
<g id="a_node31"><a xlink:href="class_ogre_1_1_r_t_shader_1_1_hardware_skinning.html" target="_top" xlink:title="Implement a sub render state which performs hardware skinning.">
<polygon fill="none" stroke="black" points="481.5,-852 481.5,-882 627.5,-882 627.5,-852 481.5,-852"/>
<text text-anchor="start" x="489.5" y="-870" font-family="Helvetica,sans-Serif" font-size="10.00">Ogre::RTShader::Hardware</text>
<text text-anchor="middle" x="554.5" y="-859" font-family="Helvetica,sans-Serif" font-size="10.00">Skinning</text>
</a>
</g>
</g>
<!-- Node333&#45;&gt;Node338 -->
<g id="edge30" class="edge">
<title>Node333&#45;&gt;Node338</title>
<path fill="none" stroke="midnightblue" d="M406.76,-835.19C432.04,-840.66 459.79,-846.68 484.29,-851.99"/>
<polygon fill="midnightblue" stroke="midnightblue" points="407.36,-831.73 396.84,-833.03 405.87,-838.57 407.36,-831.73"/>
</g>
<!-- Node339 -->
<g id="node32" class="node">
<title>Node339</title>
<g id="a_node32"><a xlink:href="class_ogre_1_1_r_t_shader_1_1_integrated_p_s_s_m3.html" target="_top" xlink:title="Integrated PSSM shadow receiver with 3 splits sub render state implementation.">
<polygon fill="none" stroke="black" points="480,-803 480,-833 629,-833 629,-803 480,-803"/>
<text text-anchor="start" x="488" y="-821" font-family="Helvetica,sans-Serif" font-size="10.00">Ogre::RTShader::Integrated</text>
<text text-anchor="middle" x="554.5" y="-810" font-family="Helvetica,sans-Serif" font-size="10.00">PSSM3</text>
</a>
</g>
</g>
<!-- Node333&#45;&gt;Node339 -->
<g id="edge31" class="edge">
<title>Node333&#45;&gt;Node339</title>
<path fill="none" stroke="midnightblue" d="M412.2,-818C434.4,-818 458.15,-818 479.72,-818"/>
<polygon fill="midnightblue" stroke="midnightblue" points="412.13,-814.5 402.13,-818 412.13,-821.5 412.13,-814.5"/>
</g>
<!-- Node340 -->
<g id="node33" class="node">
<title>Node340</title>
<g id="a_node33"><a xlink:href="class_ogre_1_1_r_t_shader_1_1_triplanar_texturing.html" target="_top" xlink:title="Triplanar Texturing.">
<polygon fill="none" stroke="black" points="484,-754 484,-784 625,-784 625,-754 484,-754"/>
<text text-anchor="start" x="492" y="-772" font-family="Helvetica,sans-Serif" font-size="10.00">Ogre::RTShader::Triplanar</text>
<text text-anchor="middle" x="554.5" y="-761" font-family="Helvetica,sans-Serif" font-size="10.00">Texturing</text>
</a>
</g>
</g>
<!-- Node333&#45;&gt;Node340 -->
<g id="edge32" class="edge">
<title>Node333&#45;&gt;Node340</title>
<path fill="none" stroke="midnightblue" d="M406.76,-800.81C432.04,-795.34 459.79,-789.32 484.29,-784.01"/>
<polygon fill="midnightblue" stroke="midnightblue" points="405.87,-797.43 396.84,-802.97 407.36,-804.27 405.87,-797.43"/>
</g>
<!-- Node335 -->
<g id="node28" class="node">
<title>Node335</title>
<g id="a_node28"><a xlink:href="class_ogre_1_1_r_t_shader_1_1_layered_blending.html" target="_top" xlink:title="Texturing sub render state implementation of layered blending.">
<polygon fill="none" stroke="black" points="689,-977.5 689,-996.5 869,-996.5 869,-977.5 689,-977.5"/>
<text text-anchor="middle" x="779" y="-984.5" font-family="Helvetica,sans-Serif" font-size="10.00">Ogre::RTShader::LayeredBlending</text>
</a>
</g>
</g>
<!-- Node334&#45;&gt;Node335 -->
<g id="edge27" class="edge">
<title>Node334&#45;&gt;Node335</title>
<path fill="none" stroke="midnightblue" d="M645.47,-987C659.71,-987 674.43,-987 688.66,-987"/>
<polygon fill="midnightblue" stroke="midnightblue" points="645.2,-983.5 635.2,-987 645.2,-990.5 645.2,-983.5"/>
</g>
<!-- Node342 -->
<g id="node35" class="node">
<title>Node342</title>
<g id="a_node35"><a xlink:href="class_ogre_1_1_r_t_shader_1_1_f_f_p_texturing_factory.html" target="_top" xlink:title="A factory that enables creation of FFPTexturing instances.">
<polygon fill="none" stroke="black" points="474,-705 474,-735 635,-735 635,-705 474,-705"/>
<text text-anchor="start" x="482" y="-723" font-family="Helvetica,sans-Serif" font-size="10.00">Ogre::RTShader::FFPTexturing</text>
<text text-anchor="middle" x="554.5" y="-712" font-family="Helvetica,sans-Serif" font-size="10.00">Factory</text>
</a>
</g>
</g>
<!-- Node341&#45;&gt;Node342 -->
<g id="edge34" class="edge">
<title>Node341&#45;&gt;Node342</title>
<path fill="none" stroke="midnightblue" d="M342.87,-581.64C364.38,-612.74 406.42,-666.87 456,-696 461.86,-699.44 468.2,-702.4 474.73,-704.92"/>
<polygon fill="midnightblue" stroke="midnightblue" points="345.63,-579.46 337.12,-573.14 339.83,-583.39 345.63,-579.46"/>
</g>
<!-- Node343 -->
<g id="node36" class="node">
<title>Node343</title>
<g id="a_node36"><a xlink:href="class_ogre_1_1_r_t_shader_1_1_f_f_p_transform_factory.html" target="_top" xlink:title="A factory that enables creation of FFPTransform instances.">
<polygon fill="none" stroke="black" points="471.5,-656 471.5,-686 637.5,-686 637.5,-656 471.5,-656"/>
<text text-anchor="start" x="479.5" y="-674" font-family="Helvetica,sans-Serif" font-size="10.00">Ogre::RTShader::FFPTransform</text>
<text text-anchor="middle" x="554.5" y="-663" font-family="Helvetica,sans-Serif" font-size="10.00">Factory</text>
</a>
</g>
</g>
<!-- Node341&#45;&gt;Node343 -->
<g id="edge35" class="edge">
<title>Node341&#45;&gt;Node343</title>
<path fill="none" stroke="midnightblue" d="M353.26,-579.69C378.11,-599.59 417.5,-628.54 456,-646 464.43,-649.82 473.56,-653.14 482.72,-655.99"/>
<polygon fill="midnightblue" stroke="midnightblue" points="355.39,-576.91 345.42,-573.32 350.97,-582.34 355.39,-576.91"/>
</g>
<!-- Node344 -->
<g id="node37" class="node">
<title>Node344</title>
<g id="a_node37"><a xlink:href="class_ogre_1_1_r_t_shader_1_1_g_buffer_factory.html" target="_top" xlink:title="A factory that enables creation of GBuffer instances.">
<polygon fill="none" stroke="black" points="468.5,-617.5 468.5,-636.5 640.5,-636.5 640.5,-617.5 468.5,-617.5"/>
<text text-anchor="middle" x="554.5" y="-624.5" font-family="Helvetica,sans-Serif" font-size="10.00">Ogre::RTShader::GBufferFactory</text>
</a>
</g>
</g>
<!-- Node341&#45;&gt;Node344 -->
<g id="edge36" class="edge">
<title>Node341&#45;&gt;Node344</title>
<path fill="none" stroke="midnightblue" d="M370.7,-577.04C395.32,-587.32 426.97,-599.6 456,-608 468.67,-611.67 482.48,-614.84 495.61,-617.49"/>
<polygon fill="midnightblue" stroke="midnightblue" points="371.86,-573.73 361.29,-573.06 369.14,-580.18 371.86,-573.73"/>
</g>
<!-- Node161 -->
<g id="node38" class="node">
<title>Node161</title>
<g id="a_node38"><a xlink:href="class_ogre_1_1_r_t_shader_1_1_hardware_skinning_factory.html" target="_top" xlink:title="A factory that enables creation of HardwareSkinning instances.">
<polygon fill="none" stroke="black" points="481.5,-421 481.5,-451 627.5,-451 627.5,-421 481.5,-421"/>
<text text-anchor="start" x="489.5" y="-439" font-family="Helvetica,sans-Serif" font-size="10.00">Ogre::RTShader::Hardware</text>
<text text-anchor="middle" x="554.5" y="-428" font-family="Helvetica,sans-Serif" font-size="10.00">SkinningFactory</text>
</a>
</g>
</g>
<!-- Node341&#45;&gt;Node161 -->
<g id="edge37" class="edge">
<title>Node341&#45;&gt;Node161</title>
<path fill="none" stroke="midnightblue" d="M350.3,-535.89C374.58,-513.54 415.07,-479.59 456,-460 464.02,-456.16 472.71,-452.9 481.49,-450.14"/>
<polygon fill="midnightblue" stroke="midnightblue" points="347.62,-533.6 342.71,-542.98 352.4,-538.71 347.62,-533.6"/>
</g>
<!-- Node345 -->
<g id="node39" class="node">
<title>Node345</title>
<g id="a_node39"><a xlink:href="class_ogre_1_1_r_t_shader_1_1_integrated_p_s_s_m3_factory.html" target="_top" xlink:title="A factory that enables creation of IntegratedPSSM3 instances.">
<polygon fill="none" stroke="black" points="480,-568 480,-598 629,-598 629,-568 480,-568"/>
<text text-anchor="start" x="488" y="-586" font-family="Helvetica,sans-Serif" font-size="10.00">Ogre::RTShader::Integrated</text>
<text text-anchor="middle" x="554.5" y="-575" font-family="Helvetica,sans-Serif" font-size="10.00">PSSM3Factory</text>
</a>
</g>
</g>
<!-- Node341&#45;&gt;Node345 -->
<g id="edge38" class="edge">
<title>Node341&#45;&gt;Node345</title>
<path fill="none" stroke="midnightblue" d="M412.2,-567.37C434.4,-569.82 458.15,-572.45 479.72,-574.84"/>
<polygon fill="midnightblue" stroke="midnightblue" points="412.45,-563.88 402.13,-566.26 411.68,-570.83 412.45,-563.88"/>
</g>
<!-- Node346 -->
<g id="node40" class="node">
<title>Node346</title>
<g id="a_node40"><a xlink:href="class_ogre_1_1_r_t_shader_1_1_layered_blending_factory.html" target="_top" xlink:title="A factory that enables creation of LayeredBlending instances.">
<polygon fill="none" stroke="black" points="464.5,-519 464.5,-549 644.5,-549 644.5,-519 464.5,-519"/>
<text text-anchor="start" x="472.5" y="-537" font-family="Helvetica,sans-Serif" font-size="10.00">Ogre::RTShader::LayeredBlending</text>
<text text-anchor="middle" x="554.5" y="-526" font-family="Helvetica,sans-Serif" font-size="10.00">Factory</text>
</a>
</g>
</g>
<!-- Node341&#45;&gt;Node346 -->
<g id="edge39" class="edge">
<title>Node341&#45;&gt;Node346</title>
<path fill="none" stroke="midnightblue" d="M412.55,-548.97C429.49,-547.17 447.34,-545.27 464.41,-543.46"/>
<polygon fill="midnightblue" stroke="midnightblue" points="411.7,-545.54 402.13,-550.07 412.44,-552.5 411.7,-545.54"/>
</g>
<!-- Node347 -->
<g id="node41" class="node">
<title>Node347</title>
<g id="a_node41"><a xlink:href="class_ogre_1_1_r_t_shader_1_1_triplanar_texturing_factory.html" target="_top" xlink:title="A factory that enables creation of TriplanarMapping instances.">
<polygon fill="none" stroke="black" points="484,-470 484,-500 625,-500 625,-470 484,-470"/>
<text text-anchor="start" x="492" y="-488" font-family="Helvetica,sans-Serif" font-size="10.00">Ogre::RTShader::Triplanar</text>
<text text-anchor="middle" x="554.5" y="-477" font-family="Helvetica,sans-Serif" font-size="10.00">TexturingFactory</text>
</a>
</g>
</g>
<!-- Node341&#45;&gt;Node347 -->
<g id="edge40" class="edge">
<title>Node341&#45;&gt;Node347</title>
<path fill="none" stroke="midnightblue" d="M373.85,-539.33C398.1,-529.9 428.42,-518.66 456,-510 467.17,-506.49 479.17,-503.11 490.8,-500.02"/>
<polygon fill="midnightblue" stroke="midnightblue" points="372.56,-536.07 364.53,-542.97 375.12,-542.59 372.56,-536.07"/>
</g>
<!-- Node160 -->
<g id="node42" class="node">
<title>Node160</title>
<g id="a_node42"><a xlink:href="class_ogre_1_1_singleton.html" target="_top" xlink:title=" ">
<polygon fill="none" stroke="black" points="251.5,-388 251.5,-418 401.5,-418 401.5,-388 251.5,-388"/>
<text text-anchor="start" x="259.5" y="-406" font-family="Helvetica,sans-Serif" font-size="10.00">Ogre::Singleton&lt; Hardware</text>
<text text-anchor="middle" x="326.5" y="-395" font-family="Helvetica,sans-Serif" font-size="10.00">SkinningFactory &gt;</text>
</a>
</g>
</g>
<!-- Node160&#45;&gt;Node161 -->
<g id="edge41" class="edge">
<title>Node160&#45;&gt;Node161</title>
<path fill="none" stroke="midnightblue" d="M411.55,-415.27C434.46,-418.62 459.07,-422.21 481.26,-425.45"/>
<polygon fill="midnightblue" stroke="midnightblue" points="411.9,-411.79 401.5,-413.81 410.89,-418.71 411.9,-411.79"/>
</g>
<!-- Node134 -->
<g id="node43" class="node">
<title>Node134</title>
<g id="a_node43"><a xlink:href="class_ogre_1_1_singleton.html" target="_top" xlink:title=" ">
<polygon fill="none" stroke="black" points="26.5,-935 26.5,-965 170.5,-965 170.5,-935 26.5,-935"/>
<text text-anchor="start" x="34.5" y="-953" font-family="Helvetica,sans-Serif" font-size="10.00">Ogre::Singleton&lt; Program</text>
<text text-anchor="middle" x="98.5" y="-942" font-family="Helvetica,sans-Serif" font-size="10.00">Manager &gt;</text>
</a>
</g>
</g>
<!-- Node134&#45;&gt;Node135 -->
<g id="edge42" class="edge">
<title>Node134&#45;&gt;Node135</title>
<path fill="none" stroke="midnightblue" d="M180.92,-950C198.51,-950 217.22,-950 235.14,-950"/>
<polygon fill="midnightblue" stroke="midnightblue" points="180.7,-946.5 170.7,-950 180.7,-953.5 180.7,-946.5"/>
</g>
<!-- Node132 -->
<g id="node44" class="node">
<title>Node132</title>
<g id="a_node44"><a xlink:href="class_ogre_1_1_singleton.html" target="_top" xlink:title=" ">
<polygon fill="none" stroke="black" points="26.5,-39 26.5,-69 170.5,-69 170.5,-39 26.5,-39"/>
<text text-anchor="start" x="34.5" y="-57" font-family="Helvetica,sans-Serif" font-size="10.00">Ogre::Singleton&lt; Program</text>
<text text-anchor="middle" x="98.5" y="-46" font-family="Helvetica,sans-Serif" font-size="10.00">WriterManager &gt;</text>
</a>
</g>
</g>
<!-- Node132&#45;&gt;Node133 -->
<g id="edge43" class="edge">
<title>Node132&#45;&gt;Node133</title>
<path fill="none" stroke="midnightblue" d="M180.82,-54C200.44,-54 221.46,-54 241.21,-54"/>
<polygon fill="midnightblue" stroke="midnightblue" points="180.7,-50.5 170.7,-54 180.7,-57.5 180.7,-50.5"/>
</g>
<!-- Node0 -->
<g id="node45" class="node">
<title>Node0</title>
<g id="a_node45"><a xlink:href="class_ogre_1_1_singleton.html" target="_top" xlink:title=" ">
<polygon fill="none" stroke="black" points="0,-0.5 0,-19.5 197,-19.5 197,-0.5 0,-0.5"/>
<text text-anchor="middle" x="98.5" y="-7.5" font-family="Helvetica,sans-Serif" font-size="10.00">Ogre::Singleton&lt; ShaderGenerator &gt;</text>
</a>
</g>
</g>
<!-- Node0&#45;&gt;Node1 -->
<g id="edge44" class="edge">
<title>Node0&#45;&gt;Node1</title>
<path fill="none" stroke="midnightblue" d="M207.53,-10C216.97,-10 226.46,-10 235.73,-10"/>
<polygon fill="midnightblue" stroke="midnightblue" points="207.31,-6.5 197.31,-10 207.31,-13.5 207.31,-6.5"/>
</g>
</g>
</svg>
